<svg width="1600" height="900" viewBox="0 0 1600 900" fill="none" xmlns="http://www.w3.org/2000/svg">
  <defs>
    <linearGradient id="bg" x1="0" y1="0" x2="1" y2="1">
      <stop offset="0%" stop-color="#0B1220"/>
      <stop offset="45%" stop-color="#111827"/>
      <stop offset="100%" stop-color="#1F2937"/>
    </linearGradient>
    <radialGradient id="glow1" cx="0" cy="0" r="1" gradientUnits="userSpaceOnUse" gradientTransform="translate(320 160) rotate(30) scale(520 520)">
      <stop offset="0%" stop-color="#F97316" stop-opacity="0.35"/>
      <stop offset="100%" stop-color="#F97316" stop-opacity="0"/>
    </radialGradient>
    <radialGradient id="glow2" cx="0" cy="0" r="1" gradientUnits="userSpaceOnUse" gradientTransform="translate(1180 680) rotate(-10) scale(560 560)">
      <stop offset="0%" stop-color="#22D3EE" stop-opacity="0.25"/>
      <stop offset="100%" stop-color="#22D3EE" stop-opacity="0"/>
    </radialGradient>
    <linearGradient id="film" x1="0" y1="0" x2="1" y2="0">
      <stop offset="0%" stop-color="#FFFFFF" stop-opacity="0.12"/>
      <stop offset="100%" stop-color="#FFFFFF" stop-opacity="0.02"/>
    </linearGradient>
  </defs>

  <rect width="1600" height="900" fill="url(#bg)"/>
  <rect width="1600" height="900" fill="url(#glow1)"/>
  <rect width="1600" height="900" fill="url(#glow2)"/>

  <g opacity="0.35" stroke="#FFFFFF" stroke-opacity="0.12">
    <path d="M120 120H520" />
    <path d="M1200 190H1520" />
    <path d="M80 680H380" />
    <path d="M980 760H1450" />
  </g>

  <g opacity="0.18" fill="url(#film)">
    <rect x="980" y="210" width="240" height="150" rx="18" />
    <rect x="1040" y="250" width="240" height="150" rx="18" />
    <rect x="120" y="460" width="240" height="150" rx="18" />
    <rect x="200" y="500" width="240" height="150" rx="18" />
  </g>

  <g opacity="0.35" stroke="#FFFFFF" stroke-opacity="0.15" fill="none">
    <rect x="980" y="210" width="240" height="150" rx="18" />
    <rect x="1040" y="250" width="240" height="150" rx="18" />
    <rect x="120" y="460" width="240" height="150" rx="18" />
    <rect x="200" y="500" width="240" height="150" rx="18" />
  </g>

  <g opacity="0.4" fill="#FFFFFF">
    <circle cx="200" cy="230" r="2" />
    <circle cx="260" cy="180" r="1.5" />
    <circle cx="420" cy="300" r="1.8" />
    <circle cx="560" cy="140" r="1.2" />
    <circle cx="720" cy="260" r="1.6" />
    <circle cx="980" cy="140" r="1.4" />
    <circle cx="1120" cy="230" r="1.7" />
    <circle cx="1290" cy="310" r="1.3" />
    <circle cx="1420" cy="220" r="1.5" />
    <circle cx="220" cy="520" r="1.4" />
    <circle cx="360" cy="640" r="1.8" />
    <circle cx="540" cy="560" r="1.1" />
    <circle cx="700" cy="620" r="1.6" />
    <circle cx="880" cy="520" r="1.4" />
    <circle cx="1040" cy="600" r="1.3" />
    <circle cx="1240" cy="560" r="1.7" />
    <circle cx="1380" cy="640" r="1.2" />
  </g>

  <g opacity="0.18" stroke="#F97316" stroke-width="2">
    <path d="M260 820C420 760 600 780 760 720" />
  </g>
  <g opacity="0.18" stroke="#22D3EE" stroke-width="2">
    <path d="M820 120C980 180 1180 160 1380 220" />
  </g>
</svg>
